<svg width="183" height="181" viewBox="0 0 183 181" fill="none" xmlns="http://www.w3.org/2000/svg">
<rect width="183" height="181" rx="25" fill="white"/>
<mask id="path-2-outside-1_103_4" maskUnits="userSpaceOnUse" x="31.2818" y="39" width="69" height="98" fill="black">
<rect fill="white" x="31.2818" y="39" width="69" height="98"/>
<path d="M61.6455 135.227C56.1606 135.227 51.2515 133.818 46.9182 131C42.5849 128.182 39.1606 124.091 36.6455 118.727C34.1303 113.364 32.8727 106.848 32.8727 99.1818C32.8727 91.4242 34.1455 84.8788 36.6909 79.5455C39.2667 74.1818 42.7364 70.1364 47.1 67.4091C51.4636 64.6515 56.3273 63.2727 61.6909 63.2727C65.7818 63.2727 69.1455 63.9697 71.7818 65.3636C74.4182 66.7273 76.5091 68.3788 78.0546 70.3182C79.6 72.2273 80.797 74.0303 81.6455 75.7273H82.3273V40.9091H98.8273V134H82.6455V123H81.6455C80.797 124.697 79.5697 126.5 77.9636 128.409C76.3576 130.288 74.2364 131.894 71.6 133.227C68.9636 134.561 65.6455 135.227 61.6455 135.227ZM66.2364 121.727C69.7212 121.727 72.6909 120.788 75.1455 118.909C77.6 117 79.4636 114.348 80.7364 110.955C82.0091 107.561 82.6455 103.606 82.6455 99.0909C82.6455 94.5758 82.0091 90.6515 80.7364 87.3182C79.494 83.9848 77.6455 81.3939 75.1909 79.5455C72.7667 77.697 69.7818 76.7727 66.2364 76.7727C62.5697 76.7727 59.5091 77.7273 57.0546 79.6364C54.6 81.5455 52.7515 84.1818 51.5091 87.5455C50.2667 90.9091 49.6455 94.7576 49.6455 99.0909C49.6455 103.455 50.2667 107.348 51.5091 110.773C52.7818 114.167 54.6455 116.848 57.1 118.818C59.5849 120.758 62.6303 121.727 66.2364 121.727Z"/>
</mask>
<path d="M61.6455 135.227C56.1606 135.227 51.2515 133.818 46.9182 131C42.5849 128.182 39.1606 124.091 36.6455 118.727C34.1303 113.364 32.8727 106.848 32.8727 99.1818C32.8727 91.4242 34.1455 84.8788 36.6909 79.5455C39.2667 74.1818 42.7364 70.1364 47.1 67.4091C51.4636 64.6515 56.3273 63.2727 61.6909 63.2727C65.7818 63.2727 69.1455 63.9697 71.7818 65.3636C74.4182 66.7273 76.5091 68.3788 78.0546 70.3182C79.6 72.2273 80.797 74.0303 81.6455 75.7273H82.3273V40.9091H98.8273V134H82.6455V123H81.6455C80.797 124.697 79.5697 126.5 77.9636 128.409C76.3576 130.288 74.2364 131.894 71.6 133.227C68.9636 134.561 65.6455 135.227 61.6455 135.227ZM66.2364 121.727C69.7212 121.727 72.6909 120.788 75.1455 118.909C77.6 117 79.4636 114.348 80.7364 110.955C82.0091 107.561 82.6455 103.606 82.6455 99.0909C82.6455 94.5758 82.0091 90.6515 80.7364 87.3182C79.494 83.9848 77.6455 81.3939 75.1909 79.5455C72.7667 77.697 69.7818 76.7727 66.2364 76.7727C62.5697 76.7727 59.5091 77.7273 57.0546 79.6364C54.6 81.5455 52.7515 84.1818 51.5091 87.5455C50.2667 90.9091 49.6455 94.7576 49.6455 99.0909C49.6455 103.455 50.2667 107.348 51.5091 110.773C52.7818 114.167 54.6455 116.848 57.1 118.818C59.5849 120.758 62.6303 121.727 66.2364 121.727Z" fill="#F43F5E"/>
<path d="M46.9182 131L46.373 131.838L46.373 131.838L46.9182 131ZM36.6455 118.727L37.5509 118.303L37.5509 118.303L36.6455 118.727ZM36.6909 79.5455L35.7895 79.1126L35.7884 79.1147L36.6909 79.5455ZM47.1 67.4091L47.63 68.2571L47.6342 68.2544L47.1 67.4091ZM71.7818 65.3636L71.3144 66.2477L71.3224 66.2518L71.7818 65.3636ZM78.0546 70.3182L77.2725 70.9414L77.2773 70.9474L78.0546 70.3182ZM81.6455 75.7273L80.751 76.1745L81.0274 76.7273H81.6455V75.7273ZM82.3273 75.7273V76.7273H83.3273V75.7273H82.3273ZM82.3273 40.9091V39.9091H81.3273V40.9091H82.3273ZM98.8273 40.9091H99.8273V39.9091H98.8273V40.9091ZM98.8273 134V135H99.8273V134H98.8273ZM82.6455 134H81.6455V135H82.6455V134ZM82.6455 123H83.6455V122H82.6455V123ZM81.6455 123V122H81.0274L80.751 122.553L81.6455 123ZM77.9636 128.409L78.7238 129.059L78.7289 129.053L77.9636 128.409ZM71.6 133.227L72.0513 134.12L72.0513 134.12L71.6 133.227ZM75.1455 118.909L75.7533 119.703L75.7594 119.698L75.1455 118.909ZM80.7364 110.955L79.8 110.603L79.8 110.603L80.7364 110.955ZM80.7364 87.3182L79.7993 87.6674L79.8022 87.6749L80.7364 87.3182ZM75.1909 79.5455L74.5846 80.3407L74.5893 80.3443L75.1909 79.5455ZM57.0546 79.6364L56.4406 78.847L56.4406 78.847L57.0546 79.6364ZM51.5091 87.5455L50.571 87.199L50.571 87.199L51.5091 87.5455ZM51.5091 110.773L50.569 111.114L50.5728 111.124L51.5091 110.773ZM57.1 118.818L56.4741 119.598L56.4847 119.606L57.1 118.818ZM61.6455 134.227C56.3418 134.227 51.6244 132.868 47.4634 130.162L46.373 131.838C50.8787 134.769 55.9795 136.227 61.6455 136.227V134.227ZM47.4634 130.162C43.3081 127.459 39.9987 123.523 37.5509 118.303L35.7401 119.152C38.3226 124.659 41.8616 128.904 46.373 131.838L47.4634 130.162ZM37.5509 118.303C35.1135 113.105 33.8727 106.743 33.8727 99.1818H31.8727C31.8727 106.954 33.1471 113.622 35.7401 119.152L37.5509 118.303ZM33.8727 99.1818C33.8727 91.5286 35.1289 85.1398 37.5934 79.9762L35.7884 79.1147C33.162 84.6178 31.8727 91.3198 31.8727 99.1818H33.8727ZM37.5924 79.9783C40.0992 74.7582 43.4508 70.8691 47.63 68.2571L46.57 66.5611C42.0219 69.4037 38.4341 73.6054 35.7895 79.1126L37.5924 79.9783ZM47.6342 68.2544C51.8315 65.602 56.5086 64.2727 61.6909 64.2727V62.2727C56.1459 62.2727 51.0957 63.7011 46.5658 66.5637L47.6342 68.2544ZM61.6909 64.2727C65.6765 64.2727 68.8656 64.9529 71.3144 66.2477L72.2492 64.4796C69.4254 62.9865 65.8872 62.2727 61.6909 62.2727V64.2727ZM71.3224 66.2518C73.858 67.5634 75.8303 69.1315 77.2725 70.9414L78.8366 69.695C77.1879 67.626 74.9784 65.8912 72.2413 64.4754L71.3224 66.2518ZM77.2773 70.9474C78.7898 72.8157 79.9428 74.5579 80.751 76.1745L82.5399 75.2801C81.6512 73.5027 80.4102 71.6388 78.8318 69.689L77.2773 70.9474ZM81.6455 76.7273H82.3273V74.7273H81.6455V76.7273ZM83.3273 75.7273V40.9091H81.3273V75.7273H83.3273ZM82.3273 41.9091H98.8273V39.9091H82.3273V41.9091ZM97.8273 40.9091V134H99.8273V40.9091H97.8273ZM98.8273 133H82.6455V135H98.8273V133ZM83.6455 134V123H81.6455V134H83.6455ZM82.6455 122H81.6455V124H82.6455V122ZM80.751 122.553C79.9468 124.161 78.7687 125.899 77.1984 127.765L78.7289 129.053C80.3707 127.101 81.6472 125.233 82.5399 123.447L80.751 122.553ZM77.2035 127.759C75.6984 129.52 73.6897 131.05 71.1487 132.335L72.0513 134.12C74.7831 132.738 77.0168 131.056 78.7238 129.059L77.2035 127.759ZM71.1487 132.335C68.6928 133.577 65.5415 134.227 61.6455 134.227V136.227C65.7494 136.227 69.2345 135.544 72.0513 134.12L71.1487 132.335ZM66.2364 122.727C69.9115 122.727 73.1023 121.732 75.7533 119.703L74.5377 118.115C72.2796 119.843 69.5309 120.727 66.2364 120.727V122.727ZM75.7594 119.698C78.3826 117.658 80.346 114.844 81.6727 111.306L79.8 110.603C78.5813 113.853 76.8174 116.342 74.5315 118.12L75.7594 119.698ZM81.6727 111.306C82.9965 107.776 83.6455 103.698 83.6455 99.0909H81.6455C81.6455 103.514 81.0218 107.346 79.8 110.603L81.6727 111.306ZM83.6455 99.0909C83.6455 94.4848 82.9966 90.4345 81.6706 86.9615L79.8022 87.6749C81.0216 90.8686 81.6455 94.6667 81.6455 99.0909H83.6455ZM81.6734 86.9689C80.3751 83.4856 78.4223 80.7271 75.7925 78.7466L74.5893 80.3443C76.8686 82.0608 78.6128 84.4841 79.7994 87.6674L81.6734 86.9689ZM75.7973 78.7502C73.1714 76.748 69.9638 75.7727 66.2364 75.7727V77.7727C69.5999 77.7727 72.362 78.6459 74.5846 80.3407L75.7973 78.7502ZM66.2364 75.7727C62.3887 75.7727 59.1008 76.778 56.4406 78.847L57.6685 80.4257C59.9174 78.6765 62.7507 77.7727 66.2364 77.7727V75.7727ZM56.4406 78.847C53.8174 80.8873 51.868 83.6877 50.571 87.199L52.4472 87.8919C53.6351 84.6759 55.3826 82.2036 57.6685 80.4257L56.4406 78.847ZM50.571 87.199C49.2801 90.694 48.6455 94.6633 48.6455 99.0909H50.6455C50.6455 94.8519 51.2533 91.1242 52.4472 87.8919L50.571 87.199ZM48.6455 99.0909C48.6455 103.548 49.28 107.561 50.5691 111.114L52.4491 110.432C51.2534 107.136 50.6455 103.361 50.6455 99.0909H48.6455ZM50.5728 111.124C51.8989 114.66 53.8593 117.5 56.4741 119.598L57.7259 118.038C55.4316 116.197 53.6648 113.673 52.4454 110.422L50.5728 111.124ZM56.4847 119.606C59.1702 121.702 62.441 122.727 66.2364 122.727V120.727C62.8196 120.727 59.9996 119.813 57.7153 118.03L56.4847 119.606Z" fill="#F43F5E" mask="url(#path-2-outside-1_103_4)"/>
<mask id="path-4-outside-2_103_4" maskUnits="userSpaceOnUse" x="126.718" y="39" width="19" height="96" fill="black">
<rect fill="white" x="126.718" y="39" width="19" height="96"/>
<path d="M144.627 40.9091V134H128.173V40.9091H144.627Z"/>
</mask>
<path d="M144.627 40.9091V134H128.173V40.9091H144.627Z" fill="#334155"/>
<path d="M144.627 40.9091H145.627V39.9091H144.627V40.9091ZM144.627 134V135H145.627V134H144.627ZM128.173 134H127.173V135H128.173V134ZM128.173 40.9091V39.9091H127.173V40.9091H128.173ZM143.627 40.9091V134H145.627V40.9091H143.627ZM144.627 133H128.173V135H144.627V133ZM129.173 134V40.9091H127.173V134H129.173ZM128.173 41.9091H144.627V39.9091H128.173V41.9091Z" fill="#334155" mask="url(#path-4-outside-2_103_4)"/>
</svg>
