<svg width="195" height="191" viewBox="0 0 195 191" fill="none" xmlns="http://www.w3.org/2000/svg">
<rect width="194.994" height="191" rx="25" fill="white"/>
<mask id="path-2-outside-1_103_4" maskUnits="userSpaceOnUse" x="23" y="44" width="79" height="96" fill="black">
<rect fill="white" x="23" y="44" width="79" height="96"/>
<path d="M55.7273 139H24.1818V45.9091H56.3636C65.6061 45.9091 73.5455 47.7727 80.1818 51.5C86.8485 55.197 91.9697 60.5151 95.5455 67.4545C99.1212 74.3939 100.909 82.697 100.909 92.3636C100.909 102.061 99.1061 110.394 95.5 117.364C91.9242 124.333 86.7576 129.682 80 133.409C73.2727 137.136 65.1818 139 55.7273 139ZM41.0455 124.409H54.9091C61.3939 124.409 66.803 123.227 71.1364 120.864C75.4697 118.47 78.7273 114.909 80.9091 110.182C83.0909 105.424 84.1818 99.4848 84.1818 92.3636C84.1818 85.2424 83.0909 79.3333 80.9091 74.6364C78.7273 69.9091 75.5 66.3788 71.2273 64.0455C66.9848 61.6818 61.7121 60.5 55.4091 60.5H41.0455V124.409Z"/>
</mask>
<path d="M55.7273 139H24.1818V45.9091H56.3636C65.6061 45.9091 73.5455 47.7727 80.1818 51.5C86.8485 55.197 91.9697 60.5151 95.5455 67.4545C99.1212 74.3939 100.909 82.697 100.909 92.3636C100.909 102.061 99.1061 110.394 95.5 117.364C91.9242 124.333 86.7576 129.682 80 133.409C73.2727 137.136 65.1818 139 55.7273 139ZM41.0455 124.409H54.9091C61.3939 124.409 66.803 123.227 71.1364 120.864C75.4697 118.47 78.7273 114.909 80.9091 110.182C83.0909 105.424 84.1818 99.4848 84.1818 92.3636C84.1818 85.2424 83.0909 79.3333 80.9091 74.6364C78.7273 69.9091 75.5 66.3788 71.2273 64.0455C66.9848 61.6818 61.7121 60.5 55.4091 60.5H41.0455V124.409Z" fill="#F43F5E"/>
<path d="M24.1818 139H23.1818V140H24.1818V139ZM24.1818 45.9091V44.9091H23.1818V45.9091H24.1818ZM80.1818 51.5L79.6921 52.3719L79.6969 52.3745L80.1818 51.5ZM95.5455 67.4545L94.6565 67.9126L94.6565 67.9126L95.5455 67.4545ZM95.5 117.364L94.6118 116.904L94.6103 116.907L95.5 117.364ZM80 133.409L79.517 132.533L79.5154 132.534L80 133.409ZM41.0455 124.409H40.0455V125.409H41.0455V124.409ZM71.1364 120.864L71.6152 121.742L71.6199 121.739L71.1364 120.864ZM80.9091 110.182L81.8171 110.601L81.8181 110.599L80.9091 110.182ZM80.9091 74.6364L80.0011 75.0554L80.0022 75.0576L80.9091 74.6364ZM71.2273 64.0455L70.7406 64.9191L70.748 64.9231L71.2273 64.0455ZM41.0455 60.5V59.5H40.0455V60.5H41.0455ZM55.7273 138H24.1818V140H55.7273V138ZM25.1818 139V45.9091H23.1818V139H25.1818ZM24.1818 46.9091H56.3636V44.9091H24.1818V46.9091ZM56.3636 46.9091C65.4711 46.9091 73.2342 48.7449 79.6921 52.3719L80.6715 50.6281C73.8567 46.8006 65.741 44.9091 56.3636 44.9091V46.9091ZM79.6969 52.3745C86.1863 55.9732 91.169 61.1444 94.6565 67.9126L96.4344 66.9965C92.7704 59.8859 87.5107 54.4207 80.6668 50.6255L79.6969 52.3745ZM94.6565 67.9126C98.1439 74.6805 99.9091 82.819 99.9091 92.3636H101.909C101.909 82.5749 100.098 74.1073 96.4344 66.9965L94.6565 67.9126ZM99.9091 92.3636C99.9091 101.938 98.1291 110.106 94.6118 116.904L96.3882 117.823C100.083 110.682 101.909 102.183 101.909 92.3636H99.9091ZM94.6103 116.907C91.1239 123.703 86.0976 128.904 79.517 132.533L80.483 134.285C87.4176 130.46 92.7246 124.964 96.3897 117.82L94.6103 116.907ZM79.5154 132.534C72.9668 136.163 65.0508 138 55.7273 138V140C65.3129 140 73.5787 138.11 80.4846 134.284L79.5154 132.534ZM41.0455 125.409H54.9091V123.409H41.0455V125.409ZM54.9091 125.409C61.5105 125.409 67.0961 124.207 71.6152 121.742L70.6575 119.986C66.51 122.248 61.2774 123.409 54.9091 123.409V125.409ZM71.6199 121.739C76.1497 119.236 79.5509 115.511 81.8171 110.601L80.0011 109.763C77.9037 114.307 74.7897 117.703 70.6528 119.988L71.6199 121.739ZM81.8181 110.599C84.0774 105.672 85.1818 99.5798 85.1818 92.3636H83.1818C83.1818 99.3899 82.1044 105.176 80.0001 109.765L81.8181 110.599ZM85.1818 92.3636C85.1818 85.1483 84.0776 79.0838 81.816 74.2151L80.0022 75.0576C82.1042 79.5829 83.1818 85.3366 83.1818 92.3636H85.1818ZM81.8171 74.2173C79.5519 69.3095 76.1811 65.6114 71.7066 63.1678L70.748 64.9231C74.8189 67.1462 77.9026 70.5087 80.0011 75.0554L81.8171 74.2173ZM71.714 63.1719C67.2849 60.7042 61.8331 59.5 55.4091 59.5V61.5C61.5911 61.5 66.6848 62.6594 70.7406 64.919L71.714 63.1719ZM55.4091 59.5H41.0455V61.5H55.4091V59.5ZM40.0455 60.5V124.409H42.0455V60.5H40.0455Z" fill="#F43F5E" mask="url(#path-2-outside-1_103_4)"/>
<mask id="path-4-outside-2_103_4" maskUnits="userSpaceOnUse" x="115.436" y="44" width="61" height="96" fill="black">
<rect fill="white" x="115.436" y="44" width="61" height="96"/>
<path d="M116.618 139V45.9091H133.482V124.864H174.482V139H116.618Z"/>
</mask>
<path d="M116.618 139V45.9091H133.482V124.864H174.482V139H116.618Z" fill="#334155"/>
<path d="M116.618 139H115.618V140H116.618V139ZM116.618 45.9091V44.9091H115.618V45.9091H116.618ZM133.482 45.9091H134.482V44.9091H133.482V45.9091ZM133.482 124.864H132.482V125.864H133.482V124.864ZM174.482 124.864H175.482V123.864H174.482V124.864ZM174.482 139V140H175.482V139H174.482ZM117.618 139V45.9091H115.618V139H117.618ZM116.618 46.9091H133.482V44.9091H116.618V46.9091ZM132.482 45.9091V124.864H134.482V45.9091H132.482ZM133.482 125.864H174.482V123.864H133.482V125.864ZM173.482 124.864V139H175.482V124.864H173.482ZM174.482 138H116.618V140H174.482V138Z" fill="#334155" mask="url(#path-4-outside-2_103_4)"/>
</svg>
